<svg version="1.1" id="Layer_1" xmlns="http://www.w3.org/2000/svg" xmlns:xlink="http://www.w3.org/1999/xlink" x="0px" y="0px"
	 width="100%" viewBox="0 0 352 400" enable-background="new 0 0 352 400" xml:space="preserve">
<path fill="#000000" opacity="1.000000" stroke="none" 
	d="
M193.468658,401.000000 
	C195.044891,380.131500 193.564117,359.726532 184.475723,340.461578 
	C180.123734,331.236481 173.070465,324.576935 163.737289,320.369354 
	C161.969635,319.572449 159.588974,319.049530 160.265305,316.322662 
	C160.890717,313.801086 163.174286,313.892151 165.172485,313.911316 
	C182.750015,314.079712 200.145157,312.351990 217.079758,307.644775 
	C240.493698,301.136475 261.253815,289.952484 277.344269,271.219971 
	C283.822052,263.678497 289.027039,255.419510 291.003632,245.473053 
	C291.536041,242.793869 293.070435,241.059097 295.611267,240.029068 
	C298.881195,238.703445 301.702515,236.650375 304.397644,234.373199 
	C313.299316,226.852097 314.414185,215.552628 307.040619,206.447342 
	C305.783813,204.895355 304.399261,203.445068 303.047211,201.972153 
	C296.170197,194.480484 295.704071,190.251816 300.795471,181.581635 
	C301.122742,181.024307 301.333099,180.398315 301.654633,179.676804 
	C299.720490,177.522018 297.586884,178.367935 295.690033,179.206696 
	C288.429718,182.417130 284.960266,188.439850 284.113800,196.008392 
	C283.708893,199.628616 284.060944,203.333252 284.066437,206.999664 
	C284.081268,216.947098 290.027161,223.618408 299.877197,224.519592 
	C302.105499,224.723450 304.667358,224.451157 304.700928,227.438568 
	C304.732086,230.214935 302.012634,230.627914 299.978149,230.969284 
	C294.846680,231.830322 289.656219,231.241028 284.512817,230.934433 
	C277.996674,230.545990 273.004456,232.670929 268.944458,237.956009 
	C264.016144,244.371429 252.927795,244.167877 247.798141,237.928650 
	C244.477600,233.889847 240.559631,230.591324 236.014435,228.007721 
	C234.658112,227.236755 232.707077,226.879669 233.084564,224.310532 
	C236.084290,222.237732 239.876984,224.825562 243.179382,223.069229 
	C243.236572,218.891006 241.482758,215.228683 239.885193,211.651413 
	C236.652374,204.412521 237.767807,196.946213 238.119080,189.494019 
	C238.275833,186.168091 238.225861,182.788757 238.825165,179.536011 
	C240.271225,171.687714 236.932495,166.407913 230.468369,162.544830 
	C229.470581,161.948547 228.528473,161.244064 227.622223,160.513245 
	C226.409973,159.535675 225.322388,158.373199 226.169891,156.689636 
	C226.885849,155.267380 228.332626,155.243256 229.680740,155.494293 
	C232.754562,156.066620 235.811554,156.729416 239.031143,157.387283 
	C240.432480,153.976395 240.322052,150.623993 240.592865,147.375702 
	C241.076889,141.569443 241.228500,135.735703 241.697403,129.927856 
	C241.946671,126.840500 240.980545,125.596306 237.705490,125.103508 
	C232.238495,124.280907 226.782120,123.030434 221.523788,120.946434 
	C222.616943,118.441299 224.313583,119.008041 225.705154,118.940262 
	C229.032349,118.778175 232.367294,118.778793 235.695236,118.627922 
	C240.150299,118.425957 242.130630,116.606407 241.479980,111.639168 
	C240.704361,105.717773 240.762695,99.672401 240.696625,93.678131 
	C240.654449,89.850746 239.075363,87.892647 235.220642,87.378174 
	C230.424728,86.738075 225.888107,85.143303 221.052475,82.710152 
	C223.865784,80.644691 226.527695,81.934990 228.951584,81.731972 
	C231.438278,81.523697 233.906647,81.432388 236.375870,80.911362 
	C238.758163,80.408684 239.849808,79.218239 239.729126,76.807251 
	C239.312973,68.493835 239.024475,60.172108 238.455124,51.869469 
	C238.286667,49.412991 237.397263,47.012802 236.052475,44.829708 
	C233.764969,41.116226 230.618652,38.982235 226.155167,39.331905 
	C221.762619,39.676022 219.954727,42.909218 218.831512,46.537933 
	C215.902969,55.998890 216.599167,65.687332 217.762070,75.276062 
	C218.239807,79.215240 218.200699,82.495926 216.298141,86.206993 
	C211.422913,95.716507 211.633972,105.789017 214.703934,115.838135 
	C215.365280,118.003021 215.833786,119.848816 214.477951,121.978561 
	C209.507614,129.785843 207.636658,138.500870 207.256027,147.634842 
	C206.958954,154.763535 205.657196,155.841980 198.654343,154.269394 
	C193.370209,153.082779 188.077240,153.160461 182.746674,153.361435 
	C181.211182,153.419327 179.584396,153.474411 179.104950,151.571320 
	C178.635330,149.707169 180.013519,148.782623 181.406967,148.199463 
	C183.855133,147.174942 186.328094,146.067902 188.902328,145.520264 
	C192.571259,144.739746 194.244720,143.051910 194.117020,139.060028 
	C193.856064,130.902069 193.954254,122.728958 194.069534,114.564423 
	C194.116348,111.249176 193.350876,109.406982 189.499649,109.023308 
	C185.291229,108.604042 181.120087,107.363075 177.222946,104.520988 
	C180.258423,101.927620 183.515839,103.234520 186.433975,103.019997 
	C193.363907,102.510536 194.152405,101.871536 193.607361,94.896927 
	C193.063141,87.932869 192.238083,80.991096 191.654800,74.029610 
	C191.394089,70.918106 190.228058,69.316017 186.798065,69.029861 
	C182.459518,68.667915 177.953644,68.432259 173.526550,65.713150 
	C177.453033,63.535576 181.388489,64.009239 184.975510,63.077015 
	C188.657623,62.120087 190.350296,60.416248 189.885544,56.434689 
	C188.978424,48.663712 188.481613,40.844093 187.529984,33.079536 
	C187.254898,30.834982 186.242142,28.585026 185.161316,26.553707 
	C182.359497,21.287914 177.331345,18.331652 172.629379,19.217997 
	C167.206833,20.240175 165.588913,24.751797 165.071075,29.227993 
	C163.770508,40.470100 163.035278,51.787502 166.238220,62.889568 
	C166.909714,65.217171 167.157440,67.326324 166.334457,69.678276 
	C162.551147,80.490311 164.071732,91.003433 168.399292,101.306053 
	C169.166687,103.132996 170.275757,104.827202 169.171707,106.966606 
	C164.626419,115.774445 165.989960,125.135452 166.776947,134.413116 
	C167.212463,139.547333 167.779221,144.674988 168.465576,149.781586 
	C168.854019,152.671661 167.641541,154.082321 165.002991,154.882233 
	C158.792740,156.764984 152.489609,158.427841 146.870346,161.869125 
	C145.651764,162.615372 144.274918,162.866791 143.281235,161.549942 
	C142.340042,160.302658 142.714935,158.909866 143.684006,157.886765 
	C146.315781,155.108276 148.952972,152.317505 151.793854,149.760254 
	C153.948105,147.821060 154.848206,145.646881 154.887314,142.760498 
	C154.968536,136.768433 155.283371,130.776917 155.622284,124.791985 
	C155.818375,121.329170 154.761154,119.889069 150.987900,120.657936 
	C148.232208,121.219452 145.180862,122.079735 141.964584,119.499092 
	C145.091492,117.825600 147.791428,116.322678 150.543777,114.922768 
	C153.714874,113.309891 155.257751,110.936951 154.751266,107.262779 
	C153.707947,99.694038 153.305527,92.030006 151.325714,84.289673 
	C146.829437,83.562775 142.309540,86.559151 137.332382,84.457863 
	C139.370239,81.757629 142.381332,81.060333 144.754944,79.565506 
	C148.518097,77.195602 150.394241,74.364502 149.751770,69.687111 
	C148.756073,62.438251 148.322952,55.114040 147.476837,47.842079 
	C146.843445,42.398331 144.061172,39.377804 139.639297,38.862080 
	C134.957718,38.316067 130.401138,41.011673 128.575684,45.701725 
	C126.032478,52.235806 127.133492,58.942898 128.655029,65.390602 
	C131.184326,76.108826 134.565170,86.413521 131.403992,97.871323 
	C129.516754,104.711693 131.131195,112.128120 134.412689,118.782623 
	C135.014877,120.003769 135.330292,121.270355 134.973526,122.647827 
	C131.694717,135.307816 133.426987,148.134430 133.824051,160.902847 
	C133.908676,163.623871 133.531891,165.800720 131.346130,167.540451 
	C124.838242,172.720322 117.934425,177.468445 113.033958,184.407684 
	C112.307014,185.437073 111.106377,185.835632 109.930405,185.126175 
	C108.742920,184.409775 108.671112,183.176895 109.124077,182.022568 
	C110.218307,179.234039 110.964188,176.165436 112.656784,173.782425 
	C117.421791,167.073746 114.784767,160.112778 114.509224,152.881012 
	C110.250969,153.273636 106.941093,155.938843 102.991325,155.261032 
	C102.605278,152.927216 104.584282,152.809525 105.624878,152.030563 
	C113.462990,146.163284 114.629318,139.364822 109.281143,131.209198 
	C108.032219,129.304672 106.628860,129.819595 104.952461,130.094315 
	C98.816017,131.100006 98.808777,131.055832 96.052475,129.757324 
	C96.089081,129.596436 96.078934,129.329315 96.168907,129.289719 
	C105.985329,124.969276 106.343292,117.685692 102.974594,108.833260 
	C101.447495,104.820282 100.864250,100.447189 99.865448,96.234467 
	C99.272484,93.733490 98.089424,91.567902 96.200172,89.821716 
	C91.146927,85.151123 85.100471,86.650139 82.906570,93.185799 
	C80.601662,100.052177 81.260597,107.030807 82.674736,113.922531 
	C84.021072,120.483765 86.271339,126.827087 89.958687,132.425156 
	C92.382416,136.104813 93.303864,139.767685 93.192230,144.124863 
	C92.939240,153.999802 93.315147,163.822723 99.553413,172.304016 
	C100.814758,174.018890 100.283104,176.177658 100.230682,178.157013 
	C99.979416,187.644440 99.313492,197.147644 101.315178,206.544907 
	C101.730766,208.495987 102.186516,210.449905 102.800400,212.345322 
	C105.268013,219.964310 106.917191,221.018356 114.881485,219.377243 
	C133.914017,215.455444 151.955933,208.593887 169.598145,200.597076 
	C172.329193,199.359161 175.020554,198.033798 177.732605,196.753860 
	C179.263138,196.031540 181.008377,195.086533 182.163300,197.002777 
	C183.518387,199.251099 181.586990,200.352768 180.004013,201.246719 
	C170.703171,206.499191 160.791473,210.474716 151.098068,214.900299 
	C139.880844,220.021606 128.630463,225.034012 118.349770,231.965668 
	C110.967194,236.943298 105.684502,242.819885 105.448837,252.533463 
	C105.079315,267.763702 104.738373,282.927917 111.301315,297.150024 
	C118.250710,312.209595 130.647385,318.672028 147.110062,316.234772 
	C147.933594,316.112823 148.755905,315.969543 149.584076,315.894989 
	C151.188232,315.750458 152.615128,315.998505 153.151962,317.827179 
	C153.671219,319.595886 152.810699,320.552643 151.311554,321.405243 
	C148.132294,323.213440 144.843903,324.932220 141.986374,327.178772 
	C138.047134,330.275757 135.143356,334.037292 136.944489,339.665527 
	C137.641739,341.844299 136.748672,343.768890 134.535187,344.498291 
	C126.789421,347.050720 124.308647,353.670074 122.419861,360.463165 
	C118.823509,373.397552 118.109009,386.709381 118.022995,400.532745 
	C115.958336,401.000000 113.916664,401.000000 111.437500,401.000000 
	C108.910591,377.470520 107.281319,353.886169 104.487625,330.440613 
	C103.480110,321.985229 99.728699,313.846619 97.131706,305.594208 
	C95.232216,299.558258 93.457207,293.459503 91.121712,287.589661 
	C87.102272,277.487610 86.110802,266.982300 85.926155,256.274658 
	C85.541283,233.955734 85.839394,211.585297 84.330826,189.339508 
	C83.334366,174.645432 79.686226,160.130692 77.216858,145.537079 
	C74.775795,131.110748 70.942009,116.854179 71.743744,102.030029 
	C71.922905,98.717316 72.216614,95.370827 72.900024,92.133286 
	C74.551590,84.309311 78.946121,78.634094 87.101768,77.194145 
	C95.183449,75.767265 101.269348,79.661667 105.972290,85.943581 
	C109.278091,90.359276 109.826782,95.801750 111.238518,100.909149 
	C113.840591,110.323021 115.296021,120.067467 119.462273,129.981461 
	C117.946625,108.495193 119.535942,87.866806 117.870987,67.303772 
	C117.404312,61.540138 116.760658,55.805542 117.257751,49.890743 
	C118.819244,31.310911 139.349808,21.932878 153.583099,35.352970 
	C154.258102,32.032627 154.724091,28.757416 155.604980,25.597874 
	C157.925995,17.272858 162.076065,10.242476 171.471924,8.989669 
	C181.381012,7.668427 188.258759,12.950653 193.480789,20.830349 
	C197.815689,27.371429 198.235168,34.946781 198.942154,42.382889 
	C200.216980,55.791664 201.257095,69.222755 202.986847,82.721695 
	C203.578583,76.605194 204.234329,70.494041 204.746429,64.370880 
	C205.444962,56.018429 206.894470,47.861496 210.722427,40.303364 
	C213.856613,34.115025 218.477600,29.942879 225.788300,29.596281 
	C233.598053,29.226027 239.705673,32.170002 243.980331,38.819866 
	C247.933731,44.969948 248.651581,51.943443 249.000214,58.938259 
	C250.060913,80.219902 251.415161,101.502457 251.750854,122.798912 
	C251.954926,135.744232 250.534424,148.718597 249.759842,161.674911 
	C249.005005,174.300552 248.165939,186.921341 247.315369,199.540985 
	C247.045624,203.542862 248.768906,207.007843 250.084671,210.580536 
	C252.098465,216.048630 254.162292,221.499222 256.281952,226.927124 
	C258.650726,232.992981 259.880341,233.199585 264.252228,228.167633 
	C266.763000,225.277802 269.005585,222.154724 271.521973,219.270187 
	C273.162811,217.389313 273.828156,215.366699 273.769684,212.892151 
	C273.655548,208.062943 273.843842,203.226318 273.717468,198.397720 
	C273.441528,187.855759 278.352783,179.767380 286.077087,173.360123 
	C292.446106,168.077087 299.957977,167.315643 307.774536,169.977036 
	C312.046753,171.431656 314.299652,174.326065 314.205017,178.976257 
	C314.120300,183.139755 314.569855,187.347885 314.113861,191.462082 
	C313.445160,197.495605 315.279694,202.483902 319.936523,205.995209 
	C329.484528,213.194504 328.551300,223.216461 327.929565,233.241486 
	C327.812592,235.128067 326.742493,236.676178 325.579895,238.125351 
	C315.993164,250.075226 306.537933,262.133545 296.786469,273.947388 
	C287.936401,284.669220 276.535980,292.712708 266.350006,302.031952 
	C254.557175,312.821289 242.509796,323.334747 230.464157,333.843292 
	C228.245605,335.778748 227.932816,337.968018 228.179794,340.541779 
	C229.689651,356.276550 231.197098,372.011566 232.713013,387.745758 
	C233.112030,391.887207 233.538177,396.026093 233.975937,400.583069 
	C220.645767,401.000000 207.291550,401.000000 193.468658,401.000000 
M229.140244,323.885864 
	C229.943832,322.931183 231.367126,322.502136 231.752396,320.332184 
	C227.950256,323.303833 224.627106,325.964081 221.235519,328.534058 
	C217.886139,331.072083 216.697403,334.226471 217.082886,338.506775 
	C218.066010,349.423248 218.388168,360.401489 219.465485,371.306519 
	C220.348434,380.244049 221.662613,389.167572 224.562805,397.742828 
	C225.581192,380.013885 223.896423,362.442352 220.301498,345.225220 
	C218.291290,335.597687 220.726761,329.243896 229.140244,323.885864 
M95.563446,241.685776 
	C94.505814,230.931519 95.127243,220.008804 92.290215,208.414825 
	C91.898689,227.506607 91.254532,245.593109 94.589958,264.897400 
	C94.958511,256.536285 95.265785,249.565353 95.563446,241.685776 
M115.825043,349.629517 
	C115.838577,344.823151 115.592949,339.999084 115.919632,335.214111 
	C116.598679,325.267883 112.090652,317.048096 107.838898,308.095032 
	C106.743858,310.554291 107.597816,312.231567 108.073021,313.889252 
	C110.625145,322.792297 113.179955,331.650452 113.718613,341.021057 
	C113.890289,344.007721 113.441284,347.496887 115.825043,349.629517 
z"/>
<path fill="#000000" opacity="1.000000" stroke="none" 
	d="
M166.995178,234.061798 
	C157.055252,237.749268 148.158279,243.006760 137.593231,246.438049 
	C138.803528,242.502747 141.460876,241.016876 143.601242,239.206284 
	C156.452499,228.335144 171.013550,220.453751 186.829697,214.828476 
	C191.844070,213.045059 196.931519,211.463303 201.922592,209.618973 
	C211.287781,206.158295 219.548676,201.052963 225.835144,193.098495 
	C226.610016,192.118027 227.158661,190.696609 228.900848,190.918503 
	C230.092056,192.866379 228.739960,194.462601 228.073181,196.032349 
	C223.333954,207.189575 215.003174,214.759003 203.949417,219.317352 
	C191.807175,224.324585 179.550674,229.054718 166.995178,234.061798 
z"/>
</svg>