<svg version="1.1" id="Layer_1" xmlns="http://www.w3.org/2000/svg" xmlns:xlink="http://www.w3.org/1999/xlink" x="0px" y="0px"
	 width="100%" viewBox="0 0 352 336" enable-background="new 0 0 352 336" xml:space="preserve">
<path fill="#000000" opacity="1.000000" stroke="none" 
	d="
M231.437500,337.000000 
	C229.117584,310.787231 228.489609,284.433105 222.733810,258.641144 
	C220.263382,247.571106 215.491806,237.563736 207.608017,229.219635 
	C206.339081,227.876633 204.736252,226.591705 206.380417,224.558884 
	C208.083160,222.453613 209.718079,224.053436 211.217209,224.899414 
	C220.411499,230.087906 229.848740,233.904190 240.716629,230.868408 
	C242.812683,230.282898 244.862457,229.724365 247.184891,227.448990 
	C241.123413,229.208466 236.041824,231.747147 230.438873,231.018219 
	C224.862427,230.292755 219.661957,228.581421 215.269470,224.702408 
	C217.024750,222.462769 218.518829,223.633179 219.747223,224.064850 
	C227.360184,226.739944 234.485046,225.528137 241.376358,221.715210 
	C257.116608,213.006180 272.816101,204.220901 288.652069,195.689117 
	C293.728119,192.954346 296.010040,188.996765 296.782562,183.437317 
	C297.548584,177.924271 297.282227,172.170654 299.442078,166.916672 
	C301.660095,167.141907 301.303314,168.613632 301.240448,169.608887 
	C300.841888,175.920135 300.456085,182.237427 299.802734,188.525375 
	C299.403442,192.368652 297.259705,195.301971 294.011810,197.449966 
	C290.416229,199.827881 286.880524,202.296265 283.742126,205.420563 
	C288.158630,202.673889 292.668304,200.063110 296.954071,197.125656 
	C299.246155,195.554672 300.204498,192.830627 300.519470,190.173630 
	C301.459351,182.244522 302.210327,174.291916 302.945038,166.340179 
	C303.196167,163.622147 302.623169,161.082611 300.835144,158.843918 
	C288.410919,143.288239 274.766357,128.998367 258.281158,117.644264 
	C256.650909,116.521431 255.057846,115.319122 252.911560,115.189896 
	C246.178543,114.784500 243.970413,116.943245 244.162247,123.755592 
	C244.262405,127.312523 245.144928,130.663422 246.510620,133.914780 
	C247.394730,136.019592 248.172485,138.360641 245.413498,139.440063 
	C242.692200,140.504745 241.633789,138.188293 240.715576,136.170715 
	C238.682831,131.704193 237.575607,126.993210 237.809189,122.103119 
	C237.983994,118.443489 236.584183,117.167152 232.941696,117.017265 
	C223.212891,116.616951 223.219421,116.473625 223.236191,126.142174 
	C223.240250,128.474930 223.247665,130.807739 223.237671,133.140457 
	C223.205490,140.658203 222.225708,141.974350 214.603195,141.796555 
	C206.368408,141.604462 197.476944,142.459091 192.523727,132.961105 
	C192.123428,138.196518 193.959625,142.334045 198.934601,145.386765 
	C213.997009,154.629272 229.751099,160.661911 247.681503,154.088486 
	C249.772415,153.321960 251.769714,153.132553 252.738937,155.538208 
	C253.768768,158.094315 251.715897,159.072952 249.899857,159.986038 
	C248.606308,160.636383 247.262634,161.187027 245.218689,162.107666 
	C250.858704,166.740082 257.141571,167.540512 263.231750,168.682877 
	C268.309418,169.635284 273.472809,169.905823 278.651215,169.834503 
	C280.499115,169.809067 282.787201,169.930099 282.911682,172.278564 
	C283.059784,175.073120 280.539093,175.057098 278.572601,175.142929 
	C273.222412,175.376480 267.941803,174.600708 262.672852,173.806015 
	C261.222443,173.587265 259.803864,172.971237 258.017670,173.934464 
	C260.702301,179.082016 265.143921,181.530609 270.469788,182.824554 
	C272.459534,183.307968 275.584473,183.145828 274.905304,186.217636 
	C274.199493,189.409790 271.194214,188.300079 269.029175,187.820480 
	C264.208405,186.752548 259.966888,184.431198 256.470367,180.953522 
	C245.329849,169.873093 229.389389,166.951309 214.574982,172.810684 
	C197.606979,179.521881 180.507416,179.888290 163.576172,172.434891 
	C157.719345,169.856628 152.565857,166.268951 148.278442,161.439575 
	C143.170090,155.685486 137.531265,150.501999 130.942642,146.455719 
	C119.101753,139.183838 104.672348,141.083450 95.234795,151.036835 
	C93.863167,152.483429 93.427979,154.120316 93.307037,156.008392 
	C93.009026,160.660934 92.924934,165.354599 92.210327,169.947021 
	C90.945030,178.078339 95.112328,184.555161 98.027397,191.445145 
	C97.412125,186.760452 94.154259,182.814178 94.635620,177.607162 
	C107.045357,199.698502 120.454132,220.940475 140.382797,237.052765 
	C136.187637,239.781479 132.826675,238.449249 121.153740,229.238022 
	C124.238258,234.291504 129.547562,238.017944 136.347473,239.912933 
	C138.209625,240.431854 140.535797,240.407913 140.380005,243.327011 
	C140.244278,245.870270 138.168610,245.836823 136.456238,246.356186 
	C123.047646,250.422958 118.259285,258.333160 119.610695,272.139954 
	C121.329109,289.696167 127.034370,305.829529 135.192215,321.292694 
	C138.103867,326.811707 142.262177,331.361450 145.946472,336.662109 
	C136.979111,337.000000 127.958214,337.000000 118.563782,336.618408 
	C121.247002,324.066010 117.774757,312.103790 117.090767,300.044769 
	C115.727623,312.368347 113.820786,324.681793 117.000000,337.000000 
	C114.299988,337.000000 111.599968,337.000000 108.449982,337.000000 
	C108.931664,334.937683 108.650146,332.741547 108.654396,330.591675 
	C108.682358,316.429871 108.054970,302.233887 108.831215,288.114471 
	C109.886475,268.919983 107.061028,250.284515 102.424767,231.865173 
	C100.649086,224.810608 97.441635,218.106689 94.763405,211.291412 
	C91.169975,202.147278 87.841255,192.870041 83.678551,183.987534 
	C80.096710,176.344452 82.616020,168.841766 83.088982,161.372452 
	C84.266174,142.781372 86.138596,124.234673 87.695679,105.667114 
	C88.182526,99.861671 88.581474,94.048378 88.968170,88.235191 
	C89.222519,84.411659 90.467735,81.129082 93.511665,78.600319 
	C94.783295,77.543907 96.141830,76.376923 96.908279,74.961082 
	C104.145729,61.591579 122.379555,60.337673 133.822662,66.918327 
	C134.123001,66.791702 134.589371,66.741524 134.696091,66.518913 
	C140.064941,55.320469 150.443588,53.179806 161.245956,51.753746 
	C165.399765,51.205387 169.236542,52.016628 172.659744,54.377129 
	C174.855637,55.891323 176.464600,55.709339 178.210495,53.624844 
	C181.889526,49.232319 186.782227,47.599911 192.432159,47.679737 
	C199.761551,47.783283 207.093628,47.732941 214.424301,47.699406 
	C219.446564,47.676434 224.028961,48.802235 227.547775,52.651047 
	C229.015778,54.256699 230.400558,54.511276 232.349808,53.392715 
	C236.641846,50.929733 241.130936,50.933956 245.863144,52.320152 
	C254.329330,54.800129 262.867096,57.043041 271.407074,59.261288 
	C277.035950,60.723385 281.318909,63.746414 284.088928,68.947403 
	C286.123474,72.767441 288.278046,76.533325 290.570648,80.203720 
	C293.605865,85.063019 292.193176,90.278961 291.855713,95.327423 
	C291.111450,106.461517 290.526398,117.577187 291.145691,128.740982 
	C291.294220,131.417740 292.211090,133.413437 293.985168,135.383316 
	C298.664886,140.579559 303.107239,145.988724 307.698883,151.265442 
	C312.641876,156.945908 314.051361,163.410141 312.871826,170.805069 
	C311.747284,177.855377 311.319366,185.013824 310.379395,192.097412 
	C309.467163,198.971466 305.838165,204.023529 299.810608,207.580627 
	C286.184601,215.621872 272.721680,223.939728 259.084869,231.962265 
	C248.556702,238.155960 241.753647,247.299652 237.106659,258.340851 
	C236.027756,260.904327 236.022629,263.516357 236.102188,266.186615 
	C236.796341,289.483185 237.483719,312.779968 238.086563,336.538330 
	C235.958328,337.000000 233.916672,337.000000 231.437500,337.000000 
M155.330719,64.716179 
	C150.850845,69.093666 147.649384,74.149284 146.672668,80.653732 
	C155.131561,76.737068 165.134338,76.458229 169.508606,80.088036 
	C167.408966,81.762627 164.983871,81.989021 162.536301,82.216072 
	C159.389145,82.508034 156.242203,82.821449 153.107025,83.219170 
	C148.180176,83.844208 145.021835,85.758072 144.603836,91.585480 
	C143.312195,109.593010 146.549942,126.178352 156.772446,141.487152 
	C160.554001,147.150253 164.432022,148.807373 170.696548,147.487518 
	C177.629532,146.026825 179.955566,143.497375 179.784073,136.315552 
	C179.696777,132.660019 179.493530,129.005081 179.497009,125.350006 
	C179.504623,117.347862 180.578598,109.442841 181.485535,101.501099 
	C182.926285,88.885292 177.591339,78.197029 170.942368,67.925484 
	C166.364151,60.852943 163.173538,59.850002 155.330719,64.716179 
M265.980438,100.540642 
	C266.537170,97.266037 267.106537,93.993507 267.644775,90.715858 
	C267.877716,89.297264 268.376617,88.060677 270.016357,87.991035 
	C271.903870,87.910858 272.716583,89.269379 272.830872,90.848793 
	C272.936768,92.312737 272.573700,93.807709 272.449768,95.291740 
	C272.133331,99.081955 270.558075,102.741966 270.850159,106.896721 
	C274.808441,104.480476 274.719574,97.791412 280.845551,99.173164 
	C283.341705,88.762329 278.115967,72.993179 271.001801,69.859055 
	C256.044678,63.269760 237.106979,67.004349 231.367126,76.132996 
	C241.335861,73.982239 248.144348,79.551727 255.841782,84.807350 
	C252.433670,86.932495 250.059052,85.528854 247.847855,84.779259 
	C244.395187,83.608795 241.180740,81.740021 237.733902,80.546860 
	C230.304703,77.975166 226.844101,80.031395 225.720581,87.746033 
	C225.293579,90.678101 225.479187,93.717667 225.566666,96.702934 
	C225.826294,105.562965 232.492676,111.553963 241.383072,110.755302 
	C248.391617,110.125694 255.427597,105.480675 262.154572,112.039879 
	C264.177856,108.093697 265.252991,104.818810 265.980438,100.540642 
M219.955765,109.376335 
	C221.412445,98.948952 220.291794,88.465668 220.608948,78.012672 
	C220.700607,74.992218 220.887573,72.103043 222.225143,69.283218 
	C224.705307,64.054672 221.837494,58.774860 216.053558,57.964897 
	C212.936020,57.528328 209.749588,57.467609 206.592911,57.447762 
	C195.639359,57.378899 187.814804,63.711796 185.193939,74.489220 
	C184.309464,78.126381 184.133545,81.630157 185.170334,85.300797 
	C187.523560,93.632111 187.388260,102.062065 185.552429,110.483383 
	C184.967926,113.164558 185.573334,115.402565 187.722305,117.197403 
	C190.189606,119.258118 191.682129,116.929001 193.385910,115.907814 
	C196.146515,114.253204 199.094803,113.207275 202.247437,112.705070 
	C207.970078,111.793465 213.697968,110.914886 219.955765,109.376335 
M114.978935,117.558235 
	C116.319748,121.732483 118.586319,125.373726 121.260597,128.819550 
	C124.757591,133.325470 128.197556,134.011948 134.351898,131.226700 
	C140.456421,128.464005 142.448776,125.210075 141.227798,119.759201 
	C138.758865,108.736931 136.357758,97.697250 133.697617,86.720741 
	C131.481888,77.578056 126.967255,72.090240 116.249352,73.187653 
	C109.139297,73.915665 104.442749,79.258530 105.676926,86.301445 
	C107.521820,96.829529 110.686554,106.959435 114.978935,117.558235 
M197.962006,131.571259 
	C200.609085,136.378006 205.457275,135.869980 209.790756,136.267670 
	C217.015564,136.930695 217.803467,136.123154 217.796661,128.907913 
	C217.783234,114.682999 219.296844,116.722816 205.009323,118.726196 
	C197.130966,119.830887 195.587326,122.884468 197.962006,131.571259 
M109.921722,122.523277 
	C106.300644,117.917259 102.679565,113.311241 99.058487,108.705215 
	C98.582298,108.888786 98.106102,109.072357 97.629906,109.255928 
	C97.174690,114.477074 96.695335,119.696297 96.279579,124.920586 
	C96.161194,126.408150 96.864944,127.512718 98.338173,127.946754 
	C103.246033,129.392685 108.166199,130.909882 113.074203,127.982269 
	C112.830124,125.782928 111.339424,124.572105 109.921722,122.523277 
M280.744507,105.931038 
	C280.592255,105.192307 280.419617,103.824524 279.445953,104.952599 
	C276.896362,107.906517 274.634796,111.109047 272.218201,114.265022 
	C274.288208,115.477676 277.224701,113.437798 278.210571,116.242493 
	C279.451416,119.772575 275.043121,119.266830 273.914581,121.406982 
	C276.111511,122.955338 277.312042,125.622887 280.768738,125.823441 
	C280.768738,119.212685 280.768738,112.913315 280.744507,105.931038 
z"/>
<path fill="#000000" opacity="1.000000" stroke="none" 
	d="
M167.460632,337.000000 
	C166.400620,325.227783 164.573242,313.504730 165.645447,301.479370 
	C170.982101,312.838593 173.531403,325.094696 178.896301,336.658539 
	C175.307098,337.000000 171.614182,337.000000 167.460632,337.000000 
z"/>
<path fill="#000000" opacity="1.000000" stroke="none" 
	d="
M213.963425,75.676605 
	C215.386581,76.191277 216.622360,76.314323 217.737137,78.791336 
	C207.064194,79.939865 196.932266,76.473457 186.434967,78.582588 
	C189.732712,72.092865 198.801544,71.343544 213.963425,75.676605 
z"/>
<path fill="#000000" opacity="1.000000" stroke="none" 
	d="
M124.480247,85.073349 
	C119.923073,89.416306 113.513542,88.580399 108.246025,92.457901 
	C109.349922,84.661423 117.175484,81.429932 124.480247,85.073349 
z"/>
</svg>