<svg version="1.1" id="Layer_1" xmlns="http://www.w3.org/2000/svg" xmlns:xlink="http://www.w3.org/1999/xlink" x="0px" y="0px"
	 width="100%" viewBox="0 0 352 416" enable-background="new 0 0 352 416" xml:space="preserve">
<path fill="#000000" opacity="1.000000" stroke="none" 
	d="
M250.454102,417.000000 
	C248.812943,406.665039 252.024216,396.865570 253.880951,386.937317 
	C255.253708,379.596802 254.748352,372.338257 254.353195,365.038727 
	C253.912521,356.898346 253.243927,348.770477 252.701355,340.635345 
	C251.913712,328.825500 254.880127,317.402588 257.385620,306.127197 
	C260.512115,292.057129 259.422028,278.381714 257.251648,264.513916 
	C256.042236,256.786316 254.445969,249.052444 254.116425,241.275116 
	C253.852112,235.037018 255.181915,228.723389 255.895035,222.453598 
	C257.192505,211.046204 258.626587,199.654007 259.863708,188.240280 
	C260.448639,182.843750 262.342133,177.821701 264.426178,172.969772 
	C275.871613,146.323425 279.424530,117.893616 283.709290,89.614929 
	C285.279694,79.250267 287.023010,68.910088 288.440216,58.524994 
	C288.862549,55.430111 290.427338,51.680157 286.559387,49.491077 
	C282.724762,47.320839 278.925903,47.801933 275.260498,50.253792 
	C271.945801,52.471024 269.828522,55.620930 268.045471,59.035427 
	C264.281006,66.244293 262.605835,73.973228 262.089600,82.069572 
	C261.795380,86.684906 262.761108,89.907494 267.889740,90.702766 
	C269.130249,90.895119 270.566986,91.150352 271.022644,92.786346 
	C270.090942,94.640594 268.423981,94.076195 267.105286,93.710098 
	C262.049255,92.306404 259.059448,94.594704 256.439453,98.700027 
	C250.866241,107.432770 249.667984,116.973396 250.310791,126.998566 
	C250.451691,129.196014 251.824142,130.131470 253.487717,131.065201 
	C255.319534,132.093384 257.496857,132.840057 258.105865,135.714294 
	C253.902176,136.110123 248.676971,131.287582 245.837814,137.446396 
	C242.718491,144.212997 250.312134,144.999222 253.316147,148.610718 
	C252.315872,149.054276 251.794983,149.501846 251.501251,149.383865 
	C244.057175,146.393921 240.342026,151.289001 237.081696,156.461243 
	C230.775711,166.465195 224.530579,176.520096 218.681366,186.793671 
	C216.036911,191.438431 213.011566,193.290802 207.754791,191.733673 
	C204.913239,190.891968 201.846970,190.533737 198.872269,190.477753 
	C193.682388,190.380066 191.523697,187.722183 190.933655,182.827347 
	C184.680557,130.953598 170.920959,80.618416 159.436508,29.817833 
	C158.716644,26.633560 158.223434,23.099962 153.592789,22.953938 
	C148.777328,22.802080 144.605072,23.615871 142.325989,28.492493 
	C139.671097,34.173237 139.895050,40.228558 140.450974,46.179352 
	C141.194489,54.138100 142.922882,61.942631 145.179703,69.640762 
	C146.132584,72.891022 147.593491,73.964470 150.921661,73.088776 
	C153.045563,72.529938 155.378723,72.258369 157.706985,72.988434 
	C157.074844,75.297073 155.290207,75.805557 153.862671,76.283577 
	C147.963882,78.258766 146.360916,82.753670 146.412155,88.302673 
	C146.529556,101.019402 148.039627,113.537025 151.701324,125.763687 
	C152.646988,128.921249 154.310318,129.846603 157.624344,129.214920 
	C161.617966,128.453690 165.745163,128.393341 170.777512,127.943520 
	C167.810959,131.686569 164.235580,132.274185 161.136444,133.220795 
	C155.845764,134.836807 154.020905,137.762131 154.102951,143.382385 
	C154.292419,156.359268 156.525055,168.808090 160.911179,181.000565 
	C162.448624,185.274368 164.817459,186.273819 168.879700,185.277634 
	C171.193604,184.710190 173.637726,184.269241 176.636490,185.423080 
	C173.950729,188.137131 170.923508,189.106583 168.240128,190.577957 
	C166.003403,191.804459 163.929092,192.861954 163.913162,196.027588 
	C163.897690,199.105392 165.058365,201.006699 167.794556,202.318436 
	C169.732895,203.247650 171.772003,204.299545 173.247849,205.804825 
	C180.965729,213.676575 190.939209,215.016357 201.132111,215.682877 
	C205.170990,215.946960 208.419098,217.282440 211.231033,220.315384 
	C216.062622,225.526718 222.297363,229.490799 225.204697,237.101410 
	C227.564865,234.094894 228.062836,231.066757 228.689926,228.105881 
	C229.099182,226.173538 229.112961,223.557495 231.952164,224.162598 
	C234.525177,224.710999 234.057358,227.199997 233.753571,229.167816 
	C233.138519,233.152023 231.774063,236.914185 229.978851,240.505295 
	C229.051895,242.359543 228.089722,244.106689 230.253220,246.144470 
	C234.470795,243.925735 237.138214,240.250687 239.393814,236.176437 
	C240.271912,234.590378 241.074310,232.382248 243.371201,233.481949 
	C245.935181,234.709473 244.697357,236.913406 243.825867,238.672821 
	C241.880112,242.601059 239.173508,246.019089 235.857193,248.842346 
	C233.214584,251.092056 233.113144,253.198624 234.631561,256.230042 
	C241.569534,270.081116 248.289078,284.041595 255.090561,297.961060 
	C255.455978,298.708923 255.920593,299.414978 256.221405,300.186371 
	C256.886230,301.891174 256.883881,303.503357 255.062256,304.524780 
	C253.189423,305.575012 251.809982,304.679932 250.894867,303.088531 
	C249.650757,300.924957 248.553329,298.674286 247.449677,296.433075 
	C238.029739,277.303375 228.524139,258.214752 219.276993,239.001801 
	C216.787140,233.828568 212.848129,230.236435 208.539093,226.461182 
	C205.167664,229.251770 203.696213,233.962967 198.626312,235.040344 
	C198.454041,231.798935 200.638367,229.664841 201.332169,227.070526 
	C202.123276,224.112381 201.584488,222.249207 198.206848,221.716049 
	C191.972870,220.732056 185.589035,220.741394 179.485458,218.787628 
	C178.621674,218.511124 177.255203,219.295975 176.302216,219.883072 
	C160.146667,229.835785 151.713684,226.852875 138.212692,214.146362 
	C137.512482,213.487350 136.813782,212.826736 135.734421,212.395020 
	C137.002747,219.274399 137.420334,226.264069 143.970306,231.031006 
	C149.747314,235.235397 155.189346,239.966064 160.394043,244.872971 
	C165.988586,250.147400 172.541107,253.469788 179.576584,256.227814 
	C182.184464,257.250153 183.944168,257.027618 185.700256,254.925537 
	C186.540207,253.920059 187.635162,253.084549 188.733383,252.349503 
	C189.948090,251.536469 191.297729,251.471359 192.318344,252.710480 
	C193.221405,253.806931 192.920135,255.106995 191.941299,255.834671 
	C184.127243,261.643768 188.347824,267.815399 191.386795,273.868225 
	C195.354233,281.770264 201.803894,287.163788 209.500870,291.207428 
	C210.974625,291.981689 212.491058,292.674255 213.980026,293.420044 
	C215.850677,294.356995 217.808624,295.529907 216.697311,297.942535 
	C215.518066,300.502594 213.203644,300.057892 211.093552,299.069366 
	C208.398849,297.806946 205.754242,296.437653 202.110458,294.629272 
	C205.197098,303.258484 209.349533,310.024994 215.576248,315.464508 
	C221.903107,320.991547 228.938232,325.380798 236.798981,328.423279 
	C238.579224,329.112335 241.297119,329.558228 240.482742,332.206329 
	C239.544785,335.256409 236.922638,333.952759 235.002350,333.206573 
	C220.788727,327.683289 208.999252,319.118225 201.072098,305.663177 
	C201.469177,311.547852 206.722427,321.389435 212.582642,327.277893 
	C214.110519,328.813110 215.727295,330.260101 217.247787,331.802307 
	C218.601898,333.175690 219.789902,334.739685 218.027191,336.538696 
	C216.444092,338.154388 214.629868,337.707550 213.099228,336.386902 
	C208.665466,332.561493 204.754150,328.284637 201.535477,323.344269 
	C198.252365,318.304962 196.246567,312.659790 193.519699,306.729156 
	C188.287018,310.746857 184.273468,315.351288 181.280533,320.690094 
	C168.010117,344.361938 171.464371,367.061646 185.641937,389.027161 
	C186.273315,390.005371 186.999863,390.923767 187.706665,391.851288 
	C188.708832,393.166443 189.198212,394.436951 187.749634,395.807007 
	C186.069504,397.396118 184.790634,396.579010 183.491852,395.260345 
	C166.693924,378.205780 158.004166,358.097412 160.316254,333.834045 
	C160.774094,329.029449 161.311432,324.229828 161.636627,319.416016 
	C161.903336,315.467896 160.116592,313.102203 156.010178,312.857544 
	C150.503784,321.871796 141.049286,324.930054 131.697327,320.438721 
	C128.574066,318.938751 126.891327,319.616272 125.068214,322.232483 
	C115.723587,335.642181 112.770370,350.041046 117.856270,365.832458 
	C122.327942,379.716736 130.645416,391.001678 141.403976,400.574646 
	C144.264526,403.119965 146.240326,405.481903 144.609436,409.552307 
	C143.660599,411.920410 145.177002,414.076202 145.962967,416.629089 
	C141.643097,417.000000 137.286194,417.000000 132.579529,416.661621 
	C133.552948,413.000458 131.796646,410.522797 129.902283,408.142731 
	C120.509491,396.341736 113.588501,383.049408 106.779922,369.703033 
	C104.824768,365.870483 103.247520,361.898956 102.563385,357.507843 
	C99.737076,339.367432 96.643463,321.268677 93.648064,303.154602 
	C95.017494,319.222260 96.819664,335.227112 98.764992,351.214539 
	C99.305443,355.656189 99.327171,360.258087 101.026398,364.453186 
	C107.415016,380.225464 114.590683,395.602753 125.231476,409.061462 
	C127.139938,411.475342 128.656952,413.918152 129.000000,417.000000 
	C126.629440,417.000000 124.258888,417.000000 121.444168,417.000000 
	C113.190315,405.179718 105.988937,393.029480 99.573837,380.367279 
	C94.602692,370.555237 91.652634,360.521454 90.764519,349.484497 
	C88.402489,320.130707 85.356956,290.831848 82.566299,261.512756 
	C82.244545,258.132324 81.164162,255.032623 79.005539,252.331528 
	C76.525681,249.228470 76.240883,245.772293 77.112022,241.945190 
	C78.609657,235.365875 81.332825,229.336166 84.605370,223.499130 
	C85.883736,221.218948 87.687675,219.576706 90.113274,218.655258 
	C93.693466,217.295181 97.268852,215.913940 100.894493,214.683792 
	C109.228348,211.856186 109.714867,211.823990 108.501213,203.227966 
	C107.619987,196.986450 109.152313,192.131699 113.301056,187.746216 
	C114.096947,186.904907 114.869324,185.970291 115.382050,184.943634 
	C118.929268,177.840729 125.103882,175.618469 132.534622,174.932419 
	C142.912659,173.974289 143.094818,173.697571 140.683395,163.710678 
	C134.991364,140.137222 134.000351,115.938614 130.910217,92.021988 
	C128.502106,73.384132 126.461861,54.698887 124.226860,36.038441 
	C123.690109,31.557051 123.199242,27.059908 124.202248,22.615194 
	C126.371483,13.002506 134.221100,6.459222 143.722076,6.156334 
	C155.375854,5.784814 165.123520,12.602870 168.038361,23.761101 
	C171.400269,36.630676 174.357880,49.606712 177.427017,62.551697 
	C181.379074,79.220467 185.159622,95.930588 189.211807,112.574753 
	C193.866730,131.694595 195.454895,151.333374 199.278397,170.589737 
	C199.666992,172.546799 200.059402,174.509369 200.303421,176.487457 
	C200.675873,179.506821 202.465729,180.498001 205.316620,181.002563 
	C208.422073,181.552185 209.773941,180.349533 211.076416,177.767227 
	C220.618301,158.849243 228.610397,139.446564 233.855408,118.772728 
	C240.032623,94.424492 247.568039,70.418549 254.629395,46.297806 
	C258.496948,33.086639 267.530487,28.392567 281.758301,31.918104 
	C294.476929,35.069672 300.940491,45.221180 298.878387,57.707642 
	C294.514435,84.132408 290.499817,110.614754 286.301453,137.067047 
	C284.300476,149.674377 279.159485,161.360611 274.720306,173.144440 
	C270.229340,185.065811 268.992279,197.358856 267.353912,209.698013 
	C266.609497,215.304489 266.389984,221.006180 265.279785,226.533600 
	C262.511505,240.316086 265.291992,253.774200 267.576874,267.169006 
	C269.812256,280.273651 270.848663,293.169281 267.276733,306.157349 
	C261.845612,325.905884 262.197784,346.019257 264.373444,366.085114 
	C265.585052,377.259674 264.040680,387.981628 261.735779,398.734741 
	C260.506927,404.467743 259.745483,410.209625 260.021484,416.536926 
	C256.969421,417.000000 253.938812,417.000000 250.454102,417.000000 
M109.889839,280.640839 
	C114.508316,287.697327 119.126793,294.753815 123.745277,301.810333 
	C123.862228,300.152588 123.327782,298.825409 122.701843,297.542847 
	C121.341026,294.754608 122.187164,292.708130 124.787987,291.289337 
	C127.997047,289.538757 131.273346,287.909576 134.458847,286.118195 
	C137.078613,284.644958 139.278763,284.995300 140.994247,287.427490 
	C142.671661,289.805756 144.193008,292.294128 145.782867,294.734192 
	C145.127930,291.582306 143.892227,288.742035 142.638855,285.909546 
	C134.490875,267.496368 126.388733,249.062622 118.161919,230.684708 
	C115.232689,224.141098 110.960350,222.983353 104.040550,224.472183 
	C95.126610,226.390076 91.104164,232.191803 88.599556,240.130753 
	C87.575844,243.375656 87.481575,245.962296 89.484535,248.969910 
	C96.310776,259.220123 102.842606,269.666382 109.889839,280.640839 
M174.420685,296.420227 
	C170.685013,304.236969 164.038879,304.669281 156.787521,302.698669 
	C155.760086,307.552704 158.798569,308.418030 161.593369,308.487854 
	C170.379761,308.707397 178.973190,297.654175 176.263000,289.199097 
	C172.912750,278.747223 169.028137,268.452209 164.998505,258.237762 
	C162.500702,251.906204 156.399750,249.502838 149.827957,251.176498 
	C145.914108,252.173264 143.001404,255.097931 138.820740,256.612854 
	C138.288071,252.688110 140.458618,250.688217 142.794632,248.851715 
	C145.310898,246.873489 148.450546,246.561188 152.598923,246.564957 
	C148.739319,243.184586 146.194565,240.092880 142.940170,238.263763 
	C132.245331,232.252777 131.081650,221.258347 128.017838,211.200485 
	C127.591476,209.800842 128.229019,208.666458 128.811966,207.428085 
	C132.600067,199.380951 138.928055,195.025345 147.709137,193.976349 
	C148.841995,193.841003 150.371033,194.866241 151.413361,192.806259 
	C148.754044,190.399963 146.192932,187.777771 143.318802,185.561539 
	C139.976227,182.984070 128.297165,184.618271 125.627296,187.974869 
	C121.297905,193.417877 116.593140,198.649490 118.986832,206.706879 
	C119.855865,209.632141 119.262444,212.996231 119.307373,216.160492 
	C119.338615,218.361084 119.846962,220.407043 120.799919,222.411728 
	C125.087349,231.430984 129.388992,240.445358 133.517212,249.537918 
	C138.254700,259.972473 142.814713,270.487610 147.504288,281.086304 
	C152.349197,279.379730 156.710129,277.820984 160.738190,275.486847 
	C164.245377,273.454529 166.672699,274.358002 168.430756,277.920624 
	C170.123840,281.351624 171.878891,284.761108 173.801743,288.066589 
	C175.238312,290.536133 175.757721,292.980469 174.420685,296.420227 
M154.267929,219.376328 
	C162.048294,223.080963 167.786240,218.383698 174.809570,214.676117 
	C166.864792,208.637024 159.271591,203.644760 150.520309,201.024918 
	C146.224579,199.738922 144.555634,204.320648 142.329422,206.979431 
	C140.183395,209.542526 142.310318,211.211548 144.046417,212.778519 
	C146.896866,215.351257 150.074936,217.446442 154.267929,219.376328 
M168.398392,289.129333 
	C167.645874,287.655548 166.710861,286.244812 166.175827,284.695892 
	C164.704956,280.437622 162.405121,280.378906 158.599091,282.167114 
	C154.888458,283.910492 153.917709,285.779755 155.849701,289.344788 
	C156.630981,290.786499 157.093750,292.408417 157.634232,293.971588 
	C159.008377,297.945862 161.773285,299.686981 165.719345,298.183685 
	C169.635864,296.691681 170.872818,293.729736 168.398392,289.129333 
M141.246262,297.216766 
	C138.967041,295.163910 139.007736,289.468140 133.377075,292.759003 
	C127.730415,296.059235 127.587540,295.818420 130.493912,301.682068 
	C131.303833,303.316101 132.089142,304.963898 132.952362,306.569580 
	C134.350739,309.170746 136.633698,309.749420 139.302734,309.079346 
	C144.513031,307.771271 145.261490,304.063141 141.246262,297.216766 
M138.912048,316.576324 
	C147.176895,315.053131 149.394379,312.845245 149.452957,305.727600 
	C147.017029,312.391083 141.950668,314.673279 135.573624,315.334747 
	C136.468765,315.697601 137.363922,316.060455 138.912048,316.576324 
z"/>
<path fill="#000000" opacity="1.000000" stroke="none" 
	d="
M238.444168,417.000000 
	C236.954330,402.479279 244.939850,391.646881 252.846069,380.685333 
	C252.439117,392.888855 244.778702,403.644135 246.082306,416.548950 
	C243.629440,417.000000 241.258896,417.000000 238.444168,417.000000 
z"/>
<path fill="#000000" opacity="1.000000" stroke="none" 
	d="
M119.775742,264.718750 
	C117.397713,265.987000 115.294098,266.989899 113.372520,268.266754 
	C111.516754,269.499878 109.848663,271.015472 107.619560,272.010437 
	C107.371895,267.189514 110.162048,264.269043 113.878334,262.082275 
	C117.953606,259.684235 122.207764,258.488129 127.139648,261.295837 
	C125.025818,263.890869 122.224289,263.471313 119.775742,264.718750 
z"/>
</svg>